<svg xmlns="http://www.w3.org/2000/svg" xmlns:xlink="http://www.w3.org/1999/xlink" viewBox="0 0 500 500" width="500" height="500" preserveAspectRatio="xMidYMid meet" style="width: 100%; height: 100%; transform: translate3d(0px, 0px, 0px); content-visibility: visible;"><defs><clipPath id="__lottie_element_2"><rect width="500" height="500" x="0" y="0"></rect></clipPath></defs><g clip-path="url(#__lottie_element_2)"><g transform="matrix(1,0,0,1,0,0)" opacity="1" style="display: block;"><g opacity="1" transform="matrix(1,0,0,1,250,365.3550109863281)"><path fill="rgb(24,168,222)" fill-opacity="1" d=" M9.61299991607666,-33.64500045776367 C9.61299991607666,-33.64500045776367 9.61299991607666,24.031999588012695 9.61299991607666,24.031999588012695 C9.597000122070312,29.333999633789062 5.302000045776367,33.62900161743164 0,33.64500045776367 C-5.293000221252441,33.60599899291992 -9.574000358581543,29.325000762939453 -9.61299991607666,24.031999588012695 C-9.61299991607666,24.031999588012695 -9.61299991607666,-33.64500045776367 -9.61299991607666,-33.64500045776367 C-9.61299991607666,-33.64500045776367 9.61299991607666,-33.64500045776367 9.61299991607666,-33.64500045776367z"></path></g><g opacity="1" transform="matrix(1,0,0,1,249.75999450683594,283.3089904785156)"><path fill="rgb(24,168,222)" fill-opacity="1" d=" M-9.852999687194824,-19.562000274658203 C-6.508999824523926,-19.09600067138672 -3.135999917984009,-18.871000289916992 0.23999999463558197,-18.888999938964844 C3.4210000038146973,-18.886999130249023 6.598999977111816,-19.079999923706055 9.756999969482422,-19.465999603271484 C9.756999969482422,-19.465999603271484 9.852999687194824,-18.888999938964844 9.852999687194824,-18.888999938964844 C9.852999687194824,-18.888999938964844 9.852999687194824,19.562000274658203 9.852999687194824,19.562000274658203 C9.852999687194824,19.562000274658203 -9.373000144958496,19.562000274658203 -9.373000144958496,19.562000274658203 C-9.373000144958496,19.562000274658203 -9.373000144958496,-18.888999938964844 -9.373000144958496,-18.888999938964844 C-9.373000144958496,-18.888999938964844 -9.5649995803833,-19.128999710083008 -9.852999687194824,-19.562000274658203z"></path></g><g opacity="1" transform="matrix(1,0,0,1,216.92999267578125,307.7090148925781)"><path fill="rgb(162,23,38)" fill-opacity="1" d=" M13.843999862670898,4.775000095367432 C13.843999862670898,4.775000095367432 13.843999862670898,9.581000328063965 13.843999862670898,9.581000328063965 C13.843999862670898,9.581000328063965 -5.861999988555908,9.581000328063965 -5.861999988555908,9.581000328063965 C-8.300999641418457,9.57800006866455 -10.630999565124512,8.569000244140625 -12.303000450134277,6.793000221252441 C-14.057999610900879,4.958000183105469 -15.02400016784668,2.507999897003174 -14.994000434875488,-0.03200000151991844 C-15.131999969482422,-5.166999816894531 -11.081000328063965,-9.4399995803833 -5.946000099182129,-9.57800006866455 C-5.256999969482422,-9.595999717712402 -4.567999839782715,-9.538000106811523 -3.8919999599456787,-9.404000282287598 C2.7239999771118164,-8.125 8.861000061035156,-5.048999786376953 13.843999862670898,-0.5120000243186951 C13.843999862670898,-0.5120000243186951 14.998000144958496,0.16099999845027924 14.998000144958496,0.16099999845027924 C14.239999771118164,1.5809999704360962 13.843999862670898,3.1659998893737793 13.843999862670898,4.775000095367432z"></path></g><g opacity="1" transform="matrix(1,0,0,1,283.07000732421875,307.7080078125)"><path fill="rgb(162,23,38)" fill-opacity="1" d=" M-13.843999862670898,-0.5109999775886536 C-8.861000061035156,-5.047999858856201 -2.7239999771118164,-8.12399959564209 3.8919999599456787,-9.402999877929688 C8.930999755859375,-10.399999618530273 13.824000358581543,-7.125 14.821000099182129,-2.0859999656677246 C14.954999923706055,-1.409999966621399 15.01200008392334,-0.7200000286102295 14.994000434875488,-0.03099999949336052 C15.02400016784668,2.509000062942505 14.057999610900879,4.959000110626221 12.303000450134277,6.794000148773193 C10.630999565124512,8.569999694824219 8.300999641418457,9.579000473022461 5.861999988555908,9.581999778747559 C5.861999988555908,9.581999778747559 -13.843999862670898,9.581999778747559 -13.843999862670898,9.581999778747559 C-13.843999862670898,9.581999778747559 -13.843999862670898,4.776000022888184 -13.843999862670898,4.776000022888184 C-13.843999862670898,3.1670000553131104 -14.239999771118164,1.5809999704360962 -14.998000144958496,0.16099999845027924 C-14.998000144958496,0.16099999845027924 -13.843999862670898,-0.5109999775886536 -13.843999862670898,-0.5109999775886536z"></path></g><g opacity="1" transform="matrix(1,0,0,1,194.7259979248047,364.2489929199219)"><path fill="rgb(213,31,51)" fill-opacity="1" d=" M36.04800033569336,-22.927000045776367 C36.04800033569336,-22.927000045776367 26.099000930786133,-8.748000144958496 26.099000930786133,-8.748000144958496 C26.099000930786133,-8.748000144958496 2.4030001163482666,25.13800048828125 2.4030001163482666,25.13800048828125 C2.4030001163482666,25.13800048828125 -7.210000038146973,1.1050000190734863 -7.210000038146973,1.1050000190734863 C-7.210000038146973,1.1050000190734863 -36.04800033569336,-3.7009999752044678 -36.04800033569336,-3.7009999752044678 C-36.04800033569336,-3.7009999752044678 -23.16699981689453,-25.13800048828125 -23.16699981689453,-25.13800048828125 C-15.593999862670898,-20.167999267578125 -6.645999908447266,-17.711999893188477 2.4030001163482666,-18.1200008392334 C11.487000465393066,-18.1200008392334 26.339000701904297,-18.1200008392334 36.04800033569336,-22.975000381469727 C36.04800033569336,-22.975000381469727 36.04800033569336,-22.927000045776367 36.04800033569336,-22.927000045776367z"></path></g><g opacity="1" transform="matrix(1,0,0,1,250,317.2919921875)"><path fill="rgb(250,36,60)" fill-opacity="1" d=" M10.28600025177002,14.369999885559082 C10.064000129699707,14.411999702453613 9.838000297546387,14.428000450134277 9.61299991607666,14.418000221252441 C9.61299991607666,14.418000221252441 -9.61299991607666,14.418000221252441 -9.61299991607666,14.418000221252441 C-9.838000297546387,14.428000450134277 -10.064000129699707,14.411999702453613 -10.28600025177002,14.369999885559082 C-15.312000274658203,14.017000198364258 -19.21299934387207,9.843000411987305 -19.22599983215332,4.804999828338623 C-19.22599983215332,4.804999828338623 -19.22599983215332,-4.808000087738037 -19.22599983215332,-4.808000087738037 C-19.26099967956543,-10.081999778747559 -15.01200008392334,-14.38599967956543 -9.73799991607666,-14.420999526977539 C-9.696000099182129,-14.420999526977539 -9.654999732971191,-14.420999526977539 -9.61299991607666,-14.420999526977539 C-9.61299991607666,-14.420999526977539 9.61299991607666,-14.420999526977539 9.61299991607666,-14.420999526977539 C14.88700008392334,-14.456000328063965 19.19099998474121,-10.206999778747559 19.22599983215332,-4.933000087738037 C19.22599983215332,-4.890999794006348 19.22599983215332,-4.849999904632568 19.22599983215332,-4.808000087738037 C19.22599983215332,-4.808000087738037 19.22599983215332,4.804999828338623 19.22599983215332,4.804999828338623 C19.21299934387207,9.843000411987305 15.312000274658203,14.017000198364258 10.28600025177002,14.369999885559082z"></path></g><g opacity="1" transform="matrix(1,0,0,1,201.9340057373047,310.0979919433594)"><path fill="rgb(213,31,51)" fill-opacity="1" d=" M38.452999114990234,-7.2270002365112305 C34.9379997253418,-7.208000183105469 31.704999923706055,-5.297999858856201 29.993000030517578,-2.2279999256134033 C29.993000030517578,-2.2279999256134033 28.84000015258789,-2.9010000228881836 28.84000015258789,-2.9010000228881836 C23.85700035095215,-7.438000202178955 17.719999313354492,-10.513999938964844 11.104000091552734,-11.793000221252441 C6.065000057220459,-12.789999961853027 1.1720000505447388,-9.513999938964844 0.17499999701976776,-4.474999904632568 C0.04100000113248825,-3.7990000247955322 -0.017000000923871994,-3.109999895095825 0.0010000000474974513,-2.4210000038146973 C-0.028999999165534973,0.11900000274181366 0.9380000233650208,2.569999933242798 2.693000078201294,4.40500020980835 C4.364999771118164,6.181000232696533 6.693999767303467,7.189000129699707 9.133000373840332,7.191999912261963 C9.133000373840332,7.191999912261963 28.84000015258789,7.191999912261963 28.84000015258789,7.191999912261963 C28.84000015258789,7.191999912261963 28.84000015258789,11.99899959564209 28.84000015258789,11.99899959564209 C28.85300064086914,17.03700065612793 32.75400161743164,21.211000442504883 37.779998779296875,21.56399917602539 C36.297000885009766,25.889999389648438 33.047000885009766,29.384000778198242 28.84000015258789,31.177000045776367 C19.131000518798828,36.03200149536133 4.2789998054504395,36.03099822998047 -4.804999828338623,36.03099822998047 C-13.854000091552734,36.43899917602539 -22.80299949645996,33.98400115966797 -30.375999450683594,29.013999938964844 C-32.98099899291992,27.077999114990234 -35.07600021362305,24.538000106811523 -36.47999954223633,21.61199951171875 C-37.82500076293945,18.58799934387207 -38.49700164794922,15.307999610900879 -38.45000076293945,11.99899959564209 C-38.45000076293945,-7.2270002365112305 -28.83799934387207,-36.066001892089844 0.0010000000474974513,-36.066001892089844 C16.45599937438965,-36.4109992980957 31.55299949645996,-26.975000381469727 38.452999114990234,-12.032999992370605 C38.452999114990234,-12.032999992370605 38.452999114990234,-7.2270002365112305 38.452999114990234,-7.2270002365112305z"></path></g><g opacity="1" transform="matrix(1,0,0,1,298.0660095214844,310.0979919433594)"><path fill="rgb(213,31,51)" fill-opacity="1" d=" M36.47999954223633,21.61199951171875 C35.07600021362305,24.538000106811523 32.98099899291992,27.077999114990234 30.375999450683594,29.013999938964844 C22.80299949645996,33.98400115966797 13.854000091552734,36.43899917602539 4.804999828338623,36.03099822998047 C-4.2789998054504395,36.03099822998047 -19.131000518798828,36.03200149536133 -28.84000015258789,31.177000045776367 C-33.047000885009766,29.384000778198242 -36.297000885009766,25.889999389648438 -37.779998779296875,21.56399917602539 C-32.75400161743164,21.211000442504883 -28.85300064086914,17.03700065612793 -28.84000015258789,11.99899959564209 C-28.84000015258789,11.99899959564209 -28.84000015258789,7.191999912261963 -28.84000015258789,7.191999912261963 C-28.84000015258789,7.191999912261963 -9.133000373840332,7.191999912261963 -9.133000373840332,7.191999912261963 C-6.693999767303467,7.189000129699707 -4.364999771118164,6.181000232696533 -2.693000078201294,4.40500020980835 C-0.9380000233650208,2.569999933242798 0.028999999165534973,0.11900000274181366 -0.0010000000474974513,-2.4210000038146973 C0.13699999451637268,-7.556000232696533 -3.9140000343322754,-11.829000473022461 -9.048999786376953,-11.967000007629395 C-9.73799991607666,-11.984999656677246 -10.428000450134277,-11.927000045776367 -11.104000091552734,-11.793000221252441 C-17.719999313354492,-10.513999938964844 -23.85700035095215,-7.438000202178955 -28.84000015258789,-2.9010000228881836 C-28.84000015258789,-2.9010000228881836 -29.993000030517578,-2.2279999256134033 -29.993000030517578,-2.2279999256134033 C-31.704999923706055,-5.297999858856201 -34.9379997253418,-7.208000183105469 -38.452999114990234,-7.2270002365112305 C-38.452999114990234,-7.2270002365112305 -38.452999114990234,-12.032999992370605 -38.452999114990234,-12.032999992370605 C-31.55299949645996,-26.975000381469727 -16.45599937438965,-36.4109992980957 -0.0010000000474974513,-36.066001892089844 C28.83799934387207,-36.066001892089844 38.45000076293945,-7.2270002365112305 38.45000076293945,11.99899959564209 C38.49700164794922,15.307999610900879 37.82500076293945,18.58799934387207 36.47999954223633,21.61199951171875z"></path></g><g opacity="1" transform="matrix(1,0,0,1,305.27398681640625,364.2489929199219)"><path fill="rgb(213,31,51)" fill-opacity="1" d=" M-36.04800033569336,-22.975000381469727 C-26.339000701904297,-18.1200008392334 -11.487000465393066,-18.1200008392334 -2.4030001163482666,-18.1200008392334 C6.645999908447266,-17.711999893188477 15.593999862670898,-20.167999267578125 23.16699981689453,-25.13800048828125 C23.16699981689453,-25.13800048828125 36.04800033569336,-3.7009999752044678 36.04800033569336,-3.7009999752044678 C36.04800033569336,-3.7009999752044678 7.210000038146973,1.1050000190734863 7.210000038146973,1.1050000190734863 C7.210000038146973,1.1050000190734863 -2.4030001163482666,25.13800048828125 -2.4030001163482666,25.13800048828125 C-2.4030001163482666,25.13800048828125 -26.099000930786133,-8.748000144958496 -26.099000930786133,-8.748000144958496 C-26.099000930786133,-8.748000144958496 -36.04800033569336,-22.927000045776367 -36.04800033569336,-22.927000045776367 C-36.04800033569336,-22.927000045776367 -36.04800033569336,-22.975000381469727 -36.04800033569336,-22.975000381469727z"></path></g><g opacity="1" transform="matrix(1,0,0,1,216.92999267578125,305.0820007324219)"><path fill="rgb(142,21,35)" fill-opacity="1" d=" M13.843999862670898,2.115000009536743 C8.861000061035156,-2.421999931335449 2.7239999771118164,-5.498000144958496 -3.8919999599456787,-6.7769999504089355 C-8.930999755859375,-7.77400016784668 -13.824000358581543,-4.498000144958496 -14.821000099182129,0.5410000085830688 C-14.954999923706055,1.2170000076293945 -15.01200008392334,1.906999945640564 -14.994000434875488,2.5959999561309814 C-14.984999656677246,3.4070000648498535 -14.880000114440918,4.2129998207092285 -14.682000160217285,4.999000072479248 C-13.586999893188477,0.12300000339746475 -8.786999702453613,-2.9769999980926514 -3.8919999599456787,-1.9700000286102295 C2.7239999771118164,-0.6909999847412109 8.861000061035156,2.384999990463257 13.843999862670898,6.921999931335449 C13.843999862670898,6.921999931335449 13.902000427246094,6.954999923706055 13.902000427246094,6.954999923706055 C13.95300006866455,5.501999855041504 14.32699966430664,4.078000068664551 14.998000144958496,2.7880001068115234 C14.998000144958496,2.7880001068115234 13.843999862670898,2.115000009536743 13.843999862670898,2.115000009536743z"></path></g><g opacity="1" transform="matrix(1,0,0,1,283.07000732421875,305.0820007324219)"><path fill="rgb(142,21,35)" fill-opacity="1" d=" M3.8919999599456787,-1.9709999561309814 C8.786999702453613,-2.9779999256134033 13.586999893188477,0.12200000137090683 14.682000160217285,4.998000144958496 C14.880000114440918,4.211999893188477 14.984999656677246,3.4059998989105225 14.994000434875488,2.5950000286102295 C15.131999969482422,-2.5399999618530273 11.081000328063965,-6.813000202178955 5.946000099182129,-6.951000213623047 C5.256999969482422,-6.968999862670898 4.567999839782715,-6.9120001792907715 3.8919999599456787,-6.7779998779296875 C-2.7239999771118164,-5.499000072479248 -8.861000061035156,-2.4230000972747803 -13.843999862670898,2.114000082015991 C-13.843999862670898,2.114000082015991 -14.998000144958496,2.7869999408721924 -14.998000144958496,2.7869999408721924 C-14.32699966430664,4.077000141143799 -13.95300006866455,5.501999855041504 -13.902000427246094,6.954999923706055 C-13.902000427246094,6.954999923706055 -13.843999862670898,6.921000003814697 -13.843999862670898,6.921000003814697 C-8.861000061035156,2.384000062942505 -2.7239999771118164,-0.6919999718666077 3.8919999599456787,-1.9709999561309814z"></path></g><g opacity="1" transform="matrix(1,0,0,1,199.3470001220703,347.45001220703125)"><path fill="rgb(162,23,38)" fill-opacity="1" d=" M-27.788000106811523,1.274999976158142 C-20.21500015258789,6.244999885559082 -11.267000198364258,8.699999809265137 -2.2179999351501465,8.291999816894531 C6.116000175476074,8.524999618530273 14.451000213623047,7.880000114440918 22.649999618530273,6.36899995803833 C22.649999618530273,6.36899995803833 31.427000045776367,-6.126999855041504 31.427000045776367,-6.126999855041504 C31.427000045776367,-6.126999855041504 31.427000045776367,-6.175000190734863 31.427000045776367,-6.175000190734863 C21.718000411987305,-1.3200000524520874 6.866000175476074,-1.3209999799728394 -2.2179999351501465,-1.3209999799728394 C-11.267000198364258,-0.9129999876022339 -20.21500015258789,-3.368000030517578 -27.788000106811523,-8.338000297546387 C-27.788000106811523,-8.338000297546387 -31.427000045776367,-2.2820000648498535 -31.427000045776367,-2.2820000648498535 C-30.36400032043457,-0.953000009059906 -29.141000747680664,0.24199999868869781 -27.788000106811523,1.274999976158142z"></path></g><g opacity="1" transform="matrix(1,0,0,1,300.65301513671875,347.45001220703125)"><path fill="rgb(162,23,38)" fill-opacity="1" d=" M2.2179999351501465,-1.3209999799728394 C-6.866000175476074,-1.3209999799728394 -21.718000411987305,-1.3200000524520874 -31.427000045776367,-6.175000190734863 C-31.427000045776367,-6.175000190734863 -31.427000045776367,-6.126999855041504 -31.427000045776367,-6.126999855041504 C-31.427000045776367,-6.126999855041504 -22.649999618530273,6.36899995803833 -22.649999618530273,6.36899995803833 C-14.451000213623047,7.880000114440918 -6.116000175476074,8.524999618530273 2.2179999351501465,8.291999816894531 C11.267000198364258,8.699999809265137 20.21500015258789,6.244999885559082 27.788000106811523,1.274999976158142 C29.142000198364258,0.24300000071525574 30.364999771118164,-0.9509999752044678 31.427000045776367,-2.2820000648498535 C31.427000045776367,-2.2820000648498535 27.788000106811523,-8.338000297546387 27.788000106811523,-8.338000297546387 C20.21500015258789,-3.368000030517578 11.267000198364258,-0.9129999876022339 2.2179999351501465,-1.3209999799728394z"></path></g><g opacity="1" transform="matrix(1,0,0,1,250,317.2919921875)"><path fill="rgb(190,27,46)" fill-opacity="1" d=" M-9.61299991607666,-4.808000087738037 C-9.61299991607666,-4.808000087738037 -9.61299991607666,-14.420999526977539 -9.61299991607666,-14.420999526977539 C-14.88700008392334,-14.456000328063965 -19.19099998474121,-10.206999778747559 -19.22599983215332,-4.933000087738037 C-19.22599983215332,-4.890999794006348 -19.22599983215332,-4.849999904632568 -19.22599983215332,-4.808000087738037 C-19.22599983215332,-4.808000087738037 -19.22599983215332,4.804999828338623 -19.22599983215332,4.804999828338623 C-19.21299934387207,9.843000411987305 -15.312000274658203,14.017000198364258 -10.28600025177002,14.369999885559082 C-10.064000129699707,14.411999702453613 -9.838000297546387,14.428000450134277 -9.61299991607666,14.418000221252441 C-9.61299991607666,14.418000221252441 9.61299991607666,14.418000221252441 9.61299991607666,14.418000221252441 C9.838000297546387,14.428000450134277 10.064000129699707,14.411999702453613 10.28600025177002,14.369999885559082 C15.312000274658203,14.017000198364258 19.21299934387207,9.843000411987305 19.22599983215332,4.804999828338623 C19.22599983215332,4.804999828338623 0,4.804999828338623 0,4.804999828338623 C-5.309000015258789,4.804999828338623 -9.61299991607666,0.5009999871253967 -9.61299991607666,-4.808000087738037z"></path></g><g opacity="1" transform="matrix(1,0,0,1,187.50999450683594,308.635009765625)"><path fill="rgb(250,36,60)" fill-opacity="1" d=" M18.121999740600586,-34.4109992980957 C16.910999298095703,-34.50199890136719 15.718999862670898,-34.60300064086914 14.425999641418457,-34.60300064086914 C-14.413000106811523,-34.60300064086914 -24.025999069213867,-5.764999866485596 -24.025999069213867,13.461000442504883 C-24.072999954223633,16.770000457763672 -23.399999618530273,20.049999237060547 -22.05500030517578,23.073999404907227 C-20.650999069213867,26 -18.555999755859375,28.540000915527344 -15.951000213623047,30.47599983215332 C-13.612000465393066,32.229000091552734 -11.019000053405762,33.6150016784668 -8.26099967956543,34.58599853515625 C15.069999694824219,35.24399948120117 20.70800018310547,17.243999481201172 22.06800079345703,8.496000289916992 C20.18000030517578,8.175999641418457 18.44700050354004,7.254000186920166 17.12700080871582,5.867000102996826 C15.368000030517578,4.0329999923706055 14.39900016784668,1.5829999446868896 14.425999641418457,-0.9580000042915344 C14.329999923706055,-6.083000183105469 18.350000381469727,-10.343999862670898 23.472000122070312,-10.54699993133545 C24.44300079345703,-16.871999740600586 24.909000396728516,-27.965999603271484 18.121999740600586,-34.4109992980957z"></path></g><g opacity="1" transform="matrix(1,0,0,1,311.7179870605469,308.6189880371094)"><path fill="rgb(250,36,60)" fill-opacity="1" d=" M9.345000267028809,34.481998443603516 C11.98900032043457,33.527000427246094 14.47599983215332,32.180999755859375 16.722999572753906,30.492000579833984 C19.327999114990234,28.555999755859375 21.42300033569336,26.016000747680664 22.82699966430664,23.09000015258789 C24.172000885009766,20.06599998474121 24.844999313354492,16.785999298095703 24.79800033569336,13.47700023651123 C24.79800033569336,-5.749000072479248 15.1850004196167,-34.58700180053711 -13.654000282287598,-34.58700180053711 C-15.447999954223633,-34.58599853515625 -17.239999771118164,-34.486000061035156 -19.023000717163086,-34.28900146484375 C-25.75200080871582,-27.770999908447266 -25.19499969482422,-16.6299991607666 -24.214000701904297,-10.371999740600586 C-19.128000259399414,-11.071999549865723 -14.437999725341797,-7.515999794006348 -13.73799991607666,-2.430000066757202 C-13.670000076293945,-1.937000036239624 -13.642000198364258,-1.4390000104904175 -13.654000282287598,-0.9419999718666077 C-13.62399959564209,1.5980000495910645 -14.59000015258789,4.047999858856201 -16.344999313354492,5.882999897003174 C-18.017000198364258,7.658999919891357 -20.347000122070312,8.668000221252441 -22.785999298095703,8.670999526977539 C-22.785999298095703,8.670999526977539 -22.785999298095703,8.670999526977539 -22.785999298095703,8.670999526977539 C-21.3439998626709,17.70199966430664 -15.364999771118164,36.14500045776367 9.345000267028809,34.481998443603516z"></path></g><g opacity="1" transform="matrix(1,0,0,1,250,365.3550109863281)"><path fill="rgb(66,98,111)" fill-opacity="1" d=" M-9.61299991607666,-33.64500045776367 C-9.61299991607666,-33.64500045776367 -9.61299991607666,24.031999588012695 -9.61299991607666,24.031999588012695 C-9.574000358581543,29.325000762939453 -5.293000221252441,33.60599899291992 0,33.64500045776367 C0,33.64500045776367 0,-19.22599983215332 0,-19.22599983215332 C0,-21.881000518798828 2.1510000228881836,-24.031999588012695 4.806000232696533,-24.031999588012695 C4.806000232696533,-24.031999588012695 9.61299991607666,-24.031999588012695 9.61299991607666,-24.031999588012695 C9.61299991607666,-24.031999588012695 9.61299991607666,-33.64500045776367 9.61299991607666,-33.64500045776367 C9.61299991607666,-33.64500045776367 -9.61299991607666,-33.64500045776367 -9.61299991607666,-33.64500045776367z"></path></g><g opacity="1" transform="matrix(1,0,0,1,249.75999450683594,283.3089904785156)"><path fill="rgb(66,98,111)" fill-opacity="1" d=" M-9.373000144958496,14.755999565124512 C-9.373000144958496,14.755999565124512 -9.373000144958496,19.562000274658203 -9.373000144958496,19.562000274658203 C-9.373000144958496,19.562000274658203 0.23999999463558197,19.562000274658203 0.23999999463558197,19.562000274658203 C0.23999999463558197,19.562000274658203 0.23999999463558197,-4.46999979019165 0.23999999463558197,-4.46999979019165 C0.23999999463558197,-7.125 2.3919999599456787,-9.276000022888184 5.046999931335449,-9.276000022888184 C5.046999931335449,-9.276000022888184 9.852999687194824,-9.276000022888184 9.852999687194824,-9.276000022888184 C9.852999687194824,-9.276000022888184 9.852999687194824,-18.888999938964844 9.852999687194824,-18.888999938964844 C9.852999687194824,-18.888999938964844 9.756999969482422,-19.465999603271484 9.756999969482422,-19.465999603271484 C6.598999977111816,-19.079999923706055 3.4210000038146973,-18.886999130249023 0.23999999463558197,-18.888999938964844 C-3.135999917984009,-18.871000289916992 -6.508999824523926,-19.09600067138672 -9.852999687194824,-19.562000274658203 C-9.5649995803833,-19.128999710083008 -9.373000144958496,-18.888999938964844 -9.373000144958496,-18.888999938964844 C-9.373000144958496,-18.888999938964844 -9.373000144958496,14.755999565124512 -9.373000144958496,14.755999565124512z"></path></g></g><g transform="matrix(1,0,0,1,0,0)" opacity="1" style="display: block;"><g opacity="1" transform="matrix(1,0,0,1,233.27499389648438,141.85499572753906)"><path fill="rgb(133,255,38)" fill-opacity="1" d=" M16.725000381469727,40.85499954223633 C17.648000717163086,26.56399917602539 12.39900016784668,12.562999725341797 2.305999994277954,2.4030001163482666 C-16.823999404907227,-16.726999282836914 -33.887001037597656,-21.100000381469727 -35.95399856567383,-21.58099937438965 C-21.236000061035156,-34.04899978637695 -2.565000057220459,-40.880001068115234 16.725000381469727,-40.85499954223633 C28.746999740600586,-27.69300079345703 35.58000183105469,-10.612000465393066 35.95100021362305,7.210000038146973 C36.11600112915039,21.069000244140625 28.781999588012695,33.93600082397461 16.773000717163086,40.85499954223633 C16.773000717163086,40.85499954223633 16.725000381469727,40.85499954223633 16.725000381469727,40.85499954223633z"></path></g><g opacity="1" transform="matrix(1,0,0,1,290.0459899902344,211.5970001220703)"><path fill="rgb(245,255,171)" fill-opacity="1" d=" M-30.43400001525879,9.5649995803833 C-40.4109992980957,-0.5199999809265137 -44.095001220703125,-15.243000030517578 -40.04600143432617,-28.839000701904297 C-33.14500045776367,-16.81100082397461 -20.266000747680664,-9.470000267028809 -6.401000022888184,-9.66100025177002 C11.420999526977539,-10.031999588012695 28.500999450683594,-16.864999771118164 41.66299819946289,-28.886999130249023 C41.70000076293945,-7.209000110626221 33.08399963378906,13.586999893188477 17.726999282836914,28.886999130249023 C17.726999282836914,28.886999130249023 17.631000518798828,28.791000366210938 17.631000518798828,28.791000366210938 C-0.25999999046325684,28.767000198364258 -17.461999893188477,21.88599967956543 -30.43400001525879,9.5649995803833z"></path></g><g opacity="1" transform="matrix(1,0,0,1,278.8869934082031,142.66299438476562)"><path fill="rgb(133,255,38)" fill-opacity="1" d=" M28.791000366210938,-17.631000518798828 C28.767000198364258,0.25999999046325684 21.88599967956543,17.461999893188477 9.5649995803833,30.43400001525879 C-0.5199999809265137,40.4109992980957 -15.243000030517578,44.095001220703125 -28.839000701904297,40.04600143432617 C-16.829999923706055,33.12699890136719 -9.496000289916992,20.260000228881836 -9.66100025177002,6.401000022888184 C-10.031999588012695,-11.420999526977539 -16.864999771118164,-28.500999450683594 -28.886999130249023,-41.66299819946289 C-7.209000110626221,-41.70000076293945 13.586999893188477,-33.08399963378906 28.886999130249023,-17.726999282836914 C28.886999130249023,-17.726999282836914 28.791000366210938,-17.631000518798828 28.791000366210938,-17.631000518798828z"></path></g><g opacity="1" transform="matrix(1,0,0,1,218.7550048828125,222.58200073242188)"><path fill="rgb(245,255,171)" fill-opacity="1" d=" M31.2450008392334,-39.82500076293945 C31.2450008392334,-39.82500076293945 8.414999961853027,-30.211000442504883 7.2129998207092285,-6.2270002365112305 C6.388999938964844,10.689000129699707 11.300999641418457,27.38800048828125 21.152000427246094,41.16400146484375 C0.718999981880188,38.67900085449219 -18.007999420166016,28.525999069213867 -31.23900032043457,12.758000373840332 C-31.493000030517578,-3.7160000801086426 -24.45599937438965,-19.461000442504883 -12.012999534606934,-30.260000228881836 C5.3379998207092285,-45.92900085449219 29.89900016784668,-40.20899963378906 31.19700050354004,-39.87300109863281 C31.19700050354004,-39.87300109863281 31.2450008392334,-39.87300109863281 31.2450008392334,-39.87300109863281 C31.2450008392334,-39.87300109863281 31.2450008392334,-39.82500076293945 31.2450008392334,-39.82500076293945z"></path></g><g opacity="1" transform="matrix(1,0,0,1,209.12100219726562,199.406005859375)"><path fill="rgb(133,255,38)" fill-opacity="1" d=" M2.427000045776367,-35.92300033569336 C17.415000915527344,-35.40299987792969 31.43400001525879,-28.385000228881836 40.83100128173828,-16.69700050354004 C39.53300094604492,-17.033000946044922 14.972000122070312,-22.753000259399414 -2.378999948501587,-7.084000110626221 C-14.821999549865723,3.7149999141693115 -21.858999252319336,19.459999084472656 -21.604999542236328,35.933998107910156 C-34.05799865722656,21.229000091552734 -40.87300109863281,2.572999954223633 -40.83100128173828,-16.69700050354004 C-29.982999801635742,-29.21299934387207 -14.131999969482422,-36.257999420166016 2.427000045776367,-35.92300033569336z"></path></g><g opacity="1" transform="matrix(1,0,0,1,209.19700622558594,151.49200439453125)"><path fill="rgb(245,255,171)" fill-opacity="1" d=" M40.755001068115234,31.218000411987305 C31.357999801635742,19.530000686645508 17.339000701904297,12.51200008392334 2.3510000705718994,11.991999626159668 C-14.208000183105469,11.656999588012695 -30.05900001525879,18.70199966430664 -40.90700149536133,31.218000411987305 C-40.939998626708984,7.13700008392334 -30.31100082397461,-15.723999977111816 -11.87600040435791,-31.218000411987305 C-9.809000015258789,-30.73699951171875 7.252999782562256,-26.36400032043457 26.382999420166016,-7.234000205993652 C36.47600173950195,2.9260001182556152 41.72600173950195,16.927000045776367 40.803001403808594,31.218000411987305 C40.803001403808594,31.218000411987305 40.755001068115234,31.218000411987305 40.755001068115234,31.218000411987305z"></path></g><g opacity="1" transform="matrix(1,0,0,1,290.8550109863281,163.43800354003906)"><path fill="rgb(133,255,38)" fill-opacity="1" d=" M-40.80699920654297,19.27199935913086 C-27.211000442504883,23.320999145507812 -12.48799991607666,19.63599967956543 -2.4030001163482666,9.659000396728516 C9.918000221252441,-3.312999963760376 16.798999786376953,-20.513999938964844 16.822999954223633,-38.404998779296875 C16.822999954223633,-38.404998779296875 16.91900062561035,-38.500999450683594 16.91900062561035,-38.500999450683594 C32.2760009765625,-23.201000213623047 40.891998291015625,-2.4059998989105225 40.85499954223633,19.27199935913086 C27.69300079345703,31.29400062561035 10.612000465393066,38.12699890136719 -7.210000038146973,38.49800109863281 C-21.075000762939453,38.68899917602539 -33.95399856567383,31.347999572753906 -40.85499954223633,19.31999969482422 C-40.85499954223633,19.31999969482422 -40.85499954223633,19.27199935913086 -40.85499954223633,19.27199935913086 C-40.85499954223633,19.27199935913086 -40.80699920654297,19.27199935913086 -40.80699920654297,19.27199935913086z"></path></g><g opacity="1" transform="matrix(1,0,0,1,266.82598876953125,223.58900451660156)"><path fill="rgb(133,255,38)" fill-opacity="1" d=" M-40.858001708984375,-7.234000205993652 C-39.65599822998047,-31.218000411987305 -16.826000213623047,-40.83100128173828 -16.826000213623047,-40.83100128173828 C-20.875,-27.235000610351562 -17.190000534057617,-12.512999534606934 -7.2129998207092285,-2.427999973297119 C5.758999824523926,9.892999649047852 22.959999084472656,16.77400016784668 40.85100173950195,16.79800033569336 C40.85100173950195,16.79800033569336 40.946998596191406,16.893999099731445 40.946998596191406,16.893999099731445 C27.96299934387207,29.909000396728516 10.954000473022461,38.141998291015625 -7.309000015258789,40.25299835205078 C-10.467000007629395,40.638999938964844 -13.645000457763672,40.832000732421875 -16.826000213623047,40.83000183105469 C-20.20199966430664,40.847999572753906 -23.576000213623047,40.62300109863281 -26.920000076293945,40.15700149536133 C-36.770999908447266,26.381000518798828 -41.68199920654297,9.682000160217285 -40.858001708984375,-7.234000205993652z"></path></g><g opacity="1" transform="matrix(1,0,0,1,227.50599670410156,112.61699676513672)"><path fill="rgb(24,168,222)" fill-opacity="1" d=" M22.493999481201172,-2.003999948501587 C25.062999725341797,-1.9989999532699585 27.6299991607666,-1.8589999675750732 30.18400001525879,-1.5859999656677246 C27.957000732421875,-5.173999786376953 25.381000518798828,-8.534000396728516 22.493999481201172,-11.616999626159668 C3.2039999961853027,-11.642000198364258 -15.465999603271484,-4.810999870300293 -30.18400001525879,7.6570000648498535 C-26.518999099731445,8.611000061035156 -22.961999893188477,9.937999725341797 -19.566999435424805,11.616999626159668 C-7.331999778747559,2.759000062942505 7.388999938964844,-2.007999897003174 22.493999481201172,-2.003999948501587z"></path></g><g opacity="1" transform="matrix(1,0,0,1,313.2359924316406,211.5970001220703)"><path fill="rgb(24,168,222)" fill-opacity="1" d=" M8.442000389099121,-21.195999145507812 C6.38100004196167,-1.9859999418258667 -3.318000078201294,15.588000297546387 -18.474000930786133,27.56999969482422 C-14.222000122070312,28.420000076293945 -9.895000457763672,28.82900047302246 -5.559000015258789,28.791000366210938 C-5.559000015258789,28.791000366210938 -5.4629998207092285,28.886999130249023 -5.4629998207092285,28.886999130249023 C9.894000053405762,13.586999893188477 18.51099967956543,-7.209000110626221 18.474000930786133,-28.886999130249023 C15.390999794006348,-26 12.029999732971191,-23.42300033569336 8.442000389099121,-21.195999145507812z"></path></g><g opacity="1" transform="matrix(1,0,0,1,278.8869934082031,119.47100067138672)"><path fill="rgb(24,168,222)" fill-opacity="1" d=" M27.565000534057617,18.47100067138672 C28.416000366210938,14.220999717712402 28.827999114990234,9.895000457763672 28.791000366210938,5.560999870300293 C28.791000366210938,5.560999870300293 28.886999130249023,5.465000152587891 28.886999130249023,5.465000152587891 C13.586999893188477,-9.892000198364258 -7.209000110626221,-18.507999420166016 -28.886999130249023,-18.47100067138672 C-26,-15.387999534606934 -23.42300033569336,-12.027999877929688 -21.195999145507812,-8.4399995803833 C-1.9880000352859497,-6.379000186920166 15.583000183105469,3.318000078201294 27.565000534057617,18.47100067138672z"></path></g><g opacity="1" transform="matrix(1,0,0,1,213.6959991455078,242.47799682617188)"><path fill="rgb(24,168,222)" fill-opacity="1" d=" M-24.57900047302246,-21.268999099731445 C-25.809999465942383,-16.663999557495117 -26.350000381469727,-11.902000427246094 -26.18000030517578,-7.138000011444092 C-12.949000358581543,8.630000114440918 5.7769999504089355,18.784000396728516 26.209999084472656,21.268999099731445 C23.694000244140625,17.843000411987305 21.516000747680664,14.180999755859375 19.707000732421875,10.333999633789062 C1.3839999437332153,5.98799991607666 -14.510000228881836,-5.355000019073486 -24.57900047302246,-21.268999099731445z"></path></g><g opacity="1" transform="matrix(1,0,0,1,178.7030029296875,204.41099548339844)"><path fill="rgb(24,168,222)" fill-opacity="1" d=" M10.413000106811523,16.798999786376953 C3.0869998931884766,5.295000076293945 -0.8019999861717224,-8.062000274658203 -0.800000011920929,-21.701000213623047 C-0.7770000100135803,-24.788000106811523 -0.5590000152587891,-27.871000289916992 -0.1459999978542328,-30.93000030517578 C-4.001999855041504,-28.37299919128418 -7.460999965667725,-25.26300048828125 -10.413000106811523,-21.701000213623047 C-10.454999923706055,-2.430999994277954 -3.640000104904175,16.225000381469727 8.812999725341797,30.93000030517578 C8.642999649047852,26.166000366210938 9.182000160217285,21.40399932861328 10.413000106811523,16.798999786376953z"></path></g><g opacity="1" transform="matrix(1,0,0,1,188.11500549316406,151.49200439453125)"><path fill="rgb(24,168,222)" fill-opacity="1" d=" M-9.557999610900879,21.989999771118164 C-7.008999824523926,2.2130000591278076 3.63100004196167,-15.619999885559082 19.823999404907227,-27.256999969482422 C16.429000854492188,-28.93600082397461 12.871999740600586,-30.263999938964844 9.206999778747559,-31.218000411987305 C-9.227999687194824,-15.723999977111816 -19.85700035095215,7.13700008392334 -19.823999404907227,31.218000411987305 C-16.871999740600586,27.6560001373291 -13.413999557495117,24.547000885009766 -9.557999610900879,21.989999771118164z"></path></g><g opacity="1" transform="matrix(1,0,0,1,319.08099365234375,157.66799926757812)"><path fill="rgb(24,168,222)" fill-opacity="1" d=" M-12.628999710083008,-19.72599983215332 C-2.490000009536743,-7.008999824523926 3.0269999504089355,8.777000427246094 3.0160000324249268,25.04199981689453 C3.010999917984009,27.611000061035156 2.871000051498413,30.17799949645996 2.5980000495910645,32.731998443603516 C6.185999870300293,30.5049991607666 9.545999526977539,27.929000854492188 12.628999710083008,25.04199981689453 C12.666000366210938,3.364000082015991 4.050000190734863,-17.43199920654297 -11.307000160217285,-32.731998443603516 C-11.307000160217285,-32.731998443603516 -11.402999877929688,-32.63600158691406 -11.402999877929688,-32.63600158691406 C-11.366000175476074,-28.302000045776367 -11.777999877929688,-23.97599983215332 -12.628999710083008,-19.72599983215332z"></path></g><g opacity="1" transform="matrix(1,0,0,1,270.5880126953125,251.79100036621094)"><path fill="rgb(24,168,222)" fill-opacity="1" d=" M24.179000854492188,-12.628999710083008 C6.934999942779541,1.1649999618530273 -15.720000267028809,6.203999996185303 -37.185001373291016,1.0210000276565552 C-35.375999450683594,4.868000030517578 -33.198001861572266,8.529999732971191 -30.68199920654297,11.956000328063965 C-27.33799934387207,12.42199993133545 -23.964000701904297,12.645999908447266 -20.58799934387207,12.628000259399414 C-17.406999588012695,12.630000114440918 -14.229999542236328,12.437999725341797 -11.071999549865723,12.052000045776367 C7.190999984741211,9.940999984741211 24.201000213623047,1.7070000171661377 37.185001373291016,-11.307999610900879 C37.185001373291016,-11.307999610900879 37.0890007019043,-11.404000282287598 37.0890007019043,-11.404000282287598 C32.755001068115234,-11.366999626159668 28.429000854492188,-11.777999877929688 24.179000854492188,-12.628999710083008z"></path></g><g opacity="1" transform="matrix(1,0,0,1,255.87600708007812,170.7030029296875)"><path fill="rgb(133,255,38)" fill-opacity="1" d=" M-5.875999927520752,12.006999969482422 C-5.875999927520752,12.006999969482422 -5.828000068664551,12.006999969482422 -5.828000068664551,12.006999969482422 C1.2400000095367432,7.906000137329102 6.826000213623047,1.6699999570846558 10.125,-5.806000232696533 C4.685999870300293,-10.855999946594238 -2.8410000801086426,-13 -10.125,-11.574000358581543 C-6.810999870300293,-4.177000045776367 -5.3520002365112305,3.9179999828338623 -5.875999927520752,12.006999969482422z"></path></g><g opacity="1" transform="matrix(1,0,0,1,258.1180114746094,194.72300720214844)"><path fill="rgb(245,255,171)" fill-opacity="1" d=" M-8.118000030517578,-11.965999603271484 C-10.381999969482422,-4.122000217437744 -10.204000473022461,4.22599983215332 -7.607999801635742,11.965999603271484 C-0.984000027179718,11.831000328063965 5.284999847412109,8.944999694824219 9.694999694824219,4.000999927520752 C2.2019999027252197,0.7210000157356262 -4.040999889373779,-4.875 -8.118000030517578,-11.965999603271484z"></path></g><g opacity="1" transform="matrix(1,0,0,1,262.0140075683594,174.5919952392578)"><path fill="rgb(245,255,171)" fill-opacity="1" d=" M3.986999988555908,-9.694999694824219 C0.6880000233650208,-2.2190001010894775 -4.8979997634887695,4.017000198364258 -11.965999603271484,8.118000030517578 C-4.122000217437744,10.381999969482422 4.22599983215332,10.204000473022461 11.965999603271484,7.607999801635742 C11.824000358581543,0.9829999804496765 8.934000015258789,-5.284999847412109 3.986999988555908,-9.694999694824219z"></path></g><g opacity="1" transform="matrix(1,0,0,1,237.98399353027344,189.8769989013672)"><path fill="rgb(245,255,171)" fill-opacity="1" d=" M12.015999794006348,-7.11899995803833 C12.015999794006348,-7.11899995803833 12.015999794006348,-7.166999816894531 12.015999794006348,-7.166999816894531 C12.015999794006348,-7.166999816894531 11.968000411987305,-7.166999816894531 11.968000411987305,-7.166999816894531 C4.060999870300293,-8.843999862670898 -4.109000205993652,-8.843999862670898 -12.015999794006348,-7.166999816894531 C-12.015999794006348,-7.166999816894531 -12.015999794006348,-7.166999816894531 -12.015999794006348,-7.166999816894531 C-11.994999885559082,-1.430999994277954 -9.906000137329102,4.105000019073486 -6.132999897003174,8.425000190734863 C-1.5820000171661377,1.7139999866485596 4.685999870300293,-3.6530001163482666 12.015999794006348,-7.11899995803833z"></path></g><g opacity="1" transform="matrix(1,0,0,1,237.9600067138672,175.343994140625)"><path fill="rgb(133,255,38)" fill-opacity="1" d=" M11.991999626159668,7.366000175476074 C6.892000198364258,1.121999979019165 0.46700000762939453,-3.9100000858306885 -6.815999984741211,-7.366000175476074 C-10.149999618530273,-3.177999973297119 -11.973999977111816,2.013000011444092 -11.991999626159668,7.366000175476074 C-4.085000038146973,5.689000129699707 4.085000038146973,5.689000129699707 11.991999626159668,7.366000175476074z"></path></g><g opacity="1" transform="matrix(1,0,0,1,240.625,170.9080047607422)"><path fill="rgb(245,255,171)" fill-opacity="1" d=" M9.32699966430664,11.802000045776367 C9.32699966430664,11.802000045776367 9.375,11.802000045776367 9.375,11.802000045776367 C9.902999877929688,3.7049999237060547 8.444000244140625,-4.396999835968018 5.125999927520752,-11.802000045776367 C-0.6710000038146973,-10.748000144958496 -5.873000144958496,-7.5879998207092285 -9.480999946594238,-2.930000066757202 C-2.197999954223633,0.5260000228881836 4.2270002365112305,5.558000087738037 9.32699966430664,11.802000045776367z"></path></g><g opacity="1" transform="matrix(1,0,0,1,262.0159912109375,190.46299743652344)"><path fill="rgb(133,255,38)" fill-opacity="1" d=" M-11.968000411987305,-7.752999782562256 C-11.968000411987305,-7.752999782562256 -12.015999794006348,-7.752999782562256 -12.015999794006348,-7.752999782562256 C-12.015999794006348,-7.752999782562256 -12.015999794006348,-7.704999923706055 -12.015999794006348,-7.704999923706055 C-7.947000026702881,-0.6190000176429749 -1.7139999866485596,4.9770002365112305 5.76800012588501,8.26200008392334 C9.770000457763672,3.885999917984009 11.996999740600586,-1.8229999542236328 12.015999794006348,-7.752999782562256 C12.015999794006348,-7.926000118255615 11.968000411987305,-8.08899974822998 11.963000297546387,-8.26200008392334 C4.2230000495910645,-5.665999889373779 -4.124000072479248,-5.488999843597412 -11.968000411987305,-7.752999782562256z"></path></g><g opacity="1" transform="matrix(1,0,0,1,241.17999267578125,194.75)"><path fill="rgb(133,255,38)" fill-opacity="1" d=" M8.819999694824219,-11.991999626159668 C1.4900000095367432,-8.526000022888184 -4.7779998779296875,-3.1589999198913574 -9.329000473022461,3.552000045776367 C-4.808000087738037,8.887999534606934 1.8259999752044678,11.972999572753906 8.819999694824219,11.991999626159668 C8.993000030517578,11.991999626159668 9.156000137329102,11.944000244140625 9.329000473022461,11.939000129699707 C6.732999801635742,4.198999881744385 6.556000232696533,-4.1479997634887695 8.819999694824219,-11.991999626159668z"></path></g><g opacity="1" transform="matrix(1,0,0,1,247.5970001220703,137.7689971923828)"><path fill="rgb(133,255,38)" fill-opacity="1" d=" M21.628000259399414,11.295000076293945 C21.458999633789062,-2.2170000076293945 17.458999633789062,-15.404000282287598 10.093000411987305,-26.732999801635742 C7.539000034332275,-27.010000228881836 4.9720001220703125,-27.150999069213867 2.4030001163482666,-27.1560001373291 C-10.869999885559082,-27.1560001373291 -21.6299991607666,-16.39699935913086 -21.6299991607666,-3.124000072479248 C-21.6299991607666,-2.739000082015991 -21.533000946044922,-2.380000114440918 -21.513999938964844,-1.9950000047683716 C-18.19300079345703,0.6539999842643738 -15.022000312805176,3.4860000610351562 -12.017000198364258,6.488999843597412 C-7.979000091552734,10.526000022888184 -4.686999797821045,15.244000434875488 -2.2929999828338623,20.427000045776367 C-0.746999979019165,20.73900032043457 0.8259999752044678,20.899999618530273 2.4030001163482666,20.908000946044922 C8.326000213623047,20.930999755859375 14.027000427246094,23.158000946044922 18.398000717163086,27.1560001373291 C18.398000717163086,27.1560001373291 18.398000717163086,27.1560001373291 18.398000717163086,27.1560001373291 C20.57200050354004,22.152999877929688 21.672000885009766,16.75 21.628000259399414,11.295000076293945z"></path></g><g opacity="1" transform="matrix(1,0,0,1,235.6959991455078,146.99099731445312)"><path fill="rgb(245,255,171)" fill-opacity="1" d=" M-9.61299991607666,-11.215999603271484 C-9.118000030517578,-0.20999999344348907 -1.187999963760376,9.043000221252441 9.61299991607666,11.215999603271484 C7.2179999351501465,6.0289998054504395 3.924999952316284,1.3070000410079956 -0.11500000208616257,-2.7320001125335693 C-3.119999885559082,-5.735000133514404 -6.291999816894531,-8.567000389099121 -9.61299991607666,-11.215999603271484z"></path></g><g opacity="1" transform="matrix(1,0,0,1,302.13800048828125,198.9219970703125)"><path fill="rgb(245,255,171)" fill-opacity="1" d=" M-4.072999954223633,7.820000171661377 C5.940000057220459,7.806000232696533 14.888999938964844,1.569000005722046 18.368000030517578,-7.820000171661377 C7.3480000495910645,-0.9089999794960022 -5.361000061035156,2.8389999866485596 -18.368000030517578,3.0139999389648438 C-14.25,6.123000144958496 -9.232999801635742,7.809000015258789 -4.072999954223633,7.820000171661377z"></path></g><g opacity="1" transform="matrix(1,0,0,1,298.0379943847656,169.95799255371094)"><path fill="rgb(133,255,38)" fill-opacity="1" d=" M8.404000282287598,-31.976999282836914 C6.059000015258789,-18.733999252319336 -0.20800000429153442,-6.5 -9.586000442504883,3.1389999389648438 C-13.642000198364258,7.25 -18.597000122070312,10.366000175476074 -24.05900001525879,12.241999626159668 C-24.05900001525879,12.414999961853027 -24.006000518798828,12.579000473022461 -24.006000518798828,12.751999855041504 C-23.993000030517578,20.341999053955078 -20.3799991607666,27.47599983215332 -14.267999649047852,31.976999282836914 C-1.2610000371932983,31.804000854492188 11.446999549865723,28.058000564575195 22.468000411987305,21.148000717163086 C23.499000549316406,18.468000411987305 24.038000106811523,15.62399959564209 24.05900001525879,12.751999855041504 C24.062000274658203,-3.500999927520752 18.54199981689453,-19.273000717163086 8.404000282287598,-31.976999282836914z"></path></g><g opacity="1" transform="matrix(1,0,0,1,282.0660095214844,146.8730010986328)"><path fill="rgb(245,255,171)" fill-opacity="1" d=" M6.385000228881836,26.224000930786133 C15.762999534606934,16.584999084472656 22.0310001373291,4.35099983215332 24.375999450683594,-8.892000198364258 C12.397000312805176,-24.04800033569336 -5.169000148773193,-33.75699996948242 -24.375999450683594,-35.83700180053711 C-17.010000228881836,-24.507999420166016 -13.008999824523926,-11.319999694824219 -12.84000015258789,2.191999912261963 C-12.798999786376953,7.63700008392334 -13.89799976348877,13.029000282287598 -16.06599998474121,18.02400016784668 C-16.06599998474121,18.02400016784668 -16.06599998474121,18.02400016784668 -16.06599998474121,18.02400016784668 C-10.972999572753906,22.54599952697754 -8.050999641418457,29.025999069213867 -8.034000396728516,35.83700180053711 C-8.034000396728516,35.66400146484375 -8.081999778747559,35.5 -8.086999893188477,35.32699966430664 C-2.625,33.45100021362305 2.3289999961853027,30.334999084472656 6.385000228881836,26.224000930786133z"></path></g></g></g></svg>